<svg width="37" height="35" viewBox="0 0 37 35" fill="none" xmlns="http://www.w3.org/2000/svg">
<g clip-path="url(#clip0_17_487)">
<path d="M6.96025 0.278961H29.8557C33.2782 0.278961 36.1106 3.11215 36.1106 6.53559V28.4928C36.1106 31.9753 33.2782 34.7494 29.8557 34.7494H6.96025C3.53774 34.8085 0.705322 31.9753 0.705322 28.5518V6.53559C0.705322 3.11215 3.53774 0.278961 6.96025 0.278961Z" fill="#B30B00"/>
<path d="M29.1474 20.2884C28.4393 19.5211 27.0821 19.1669 25.1348 19.1669C24.0727 19.1669 22.9515 19.285 21.8893 19.4621C21.1812 18.8128 20.5911 18.0455 20.0011 17.2781C19.588 16.6879 19.1749 16.0976 18.8209 15.4484C19.411 13.7957 19.765 12.0249 19.883 10.2542C19.883 8.66051 19.2339 6.94879 17.4637 6.94879C16.8736 6.94879 16.2835 7.30294 15.9885 7.83416C15.2213 9.13271 15.5164 11.7888 16.7556 14.563C16.3425 15.8025 15.8704 17.042 15.3394 18.3996C14.8673 19.5801 14.3362 20.7016 13.6871 21.764C11.8578 22.4723 8.02227 24.2431 7.66822 26.1909C7.5502 26.7811 7.72723 27.3714 8.1993 27.7255C8.61236 28.0797 9.20245 28.3158 9.79253 28.2568C12.0939 28.2568 14.3952 25.0694 15.9885 22.2952C16.8736 22.0001 17.7587 21.705 18.7029 21.4689C19.706 21.2328 20.6501 20.9967 21.5353 20.8196C24.0136 22.9445 26.197 23.2987 27.2591 23.2987C28.7344 23.2987 29.3244 22.6494 29.5015 22.1182C29.7375 21.4689 29.6195 20.7606 29.1474 20.2884ZM27.5542 21.4099C27.4952 21.823 27.0231 22.1182 26.433 22.1182C26.256 22.1182 26.079 22.1182 25.9019 22.0591C24.7218 21.764 23.6006 21.1738 22.6564 20.4064C23.4236 20.2884 24.2497 20.2294 25.0168 20.2294C25.5479 20.2294 26.079 20.2884 26.61 20.3474C27.1411 20.4655 27.7312 20.7016 27.5542 21.4099ZM16.9916 8.36539C17.1096 8.18831 17.2866 8.07026 17.5227 8.01124C18.1128 8.01124 18.2308 8.66051 18.2308 9.25076C18.1718 10.6083 17.9357 11.9069 17.5227 13.2054C16.5195 10.6674 16.6376 8.95563 16.9916 8.36539ZM20.2961 19.6982C19.647 19.8162 18.9979 19.9933 18.3488 20.1704C17.8767 20.2884 17.4047 20.4655 16.8736 20.5835C17.1096 20.0523 17.3457 19.5211 17.5817 19.0489C17.8767 18.3996 18.1128 17.7503 18.3488 17.1011C18.5848 17.4552 18.7619 17.7503 18.9979 18.0455C19.411 18.6357 19.883 19.1669 20.2961 19.6982ZM13.156 23.1216C11.6808 25.4826 10.2056 27.0172 9.37947 27.0172C9.26145 27.0172 9.08443 26.9582 9.02542 26.8992C8.84839 26.7811 8.78938 26.545 8.84839 26.368C8.96641 25.4826 10.6777 24.2431 13.156 23.1216Z" fill="white"/>
</g>
<defs>
<clipPath id="clip0_17_487">
<rect width="35.4053" height="34.5295" fill="white" transform="translate(0.705322 0.278961)"/>
</clipPath>
</defs>
</svg>
