<svg width="35" height="35" viewBox="0 0 35 35" fill="none" xmlns="http://www.w3.org/2000/svg">
<path d="M29.325 9.58333H5.175C2.3115 9.58333 0 12.1517 0 15.3333V26.8333H6.9V34.5H27.6V26.8333H34.5V15.3333C34.5 12.1517 32.1885 9.58333 29.325 9.58333ZM24.15 30.6667H10.35V21.0833H24.15V30.6667ZM29.325 17.25C28.3763 17.25 27.6 16.3875 27.6 15.3333C27.6 14.2792 28.3763 13.4167 29.325 13.4167C30.2738 13.4167 31.05 14.2792 31.05 15.3333C31.05 16.3875 30.2738 17.25 29.325 17.25ZM27.6 0H6.9V7.66667H27.6V0Z" fill="#00109B"/>
</svg>
