<svg width="34" height="28" viewBox="0 0 34 28" fill="none" xmlns="http://www.w3.org/2000/svg">
<path d="M21.3205 13.2826L8.09521 11.1888V26.6602C8.09521 27.3667 8.73365 27.9395 9.52121 27.9395H32.3419C33.1295 27.9395 33.7679 27.3667 33.7679 26.6602V20.96L21.3205 13.2826Z" fill="#185C37"/>
<path d="M21.3205 0.0217285H9.52121C8.73365 0.0217285 8.09521 0.594502 8.09521 1.30106V7.00118L21.3205 13.9806L28.3222 16.0745L33.7679 13.9806V7.00118L21.3205 0.0217285Z" fill="#21A366"/>
<path d="M8.09521 7.00116H21.3205V13.9806H8.09521V7.00116Z" fill="#107C41"/>
<path opacity="0.1" d="M17.5607 5.60529H8.09521V23.0539H17.5607C18.3472 23.0516 18.9841 22.4802 18.9867 21.7746V6.88461C18.9841 6.17902 18.3472 5.60758 17.5607 5.60529Z" fill="black"/>
<path opacity="0.2" d="M16.7827 6.30322H8.09521V23.7518H16.7827C17.5692 23.7495 18.2061 23.1781 18.2087 22.4725V7.58255C18.2061 6.87695 17.5692 6.30552 16.7827 6.30322Z" fill="black"/>
<path opacity="0.2" d="M16.7827 6.30322H8.09521V22.356H16.7827C17.5692 22.3537 18.2061 21.7822 18.2087 21.0766V7.58255C18.2061 6.87695 17.5692 6.30552 16.7827 6.30322Z" fill="black"/>
<path opacity="0.2" d="M16.0047 6.30322H8.09521V22.356H16.0047C16.7912 22.3537 17.4282 21.7822 17.4307 21.0766V7.58255C17.4282 6.87695 16.7912 6.30552 16.0047 6.30322Z" fill="black"/>
<path d="M1.74192 6.30322H16.005C16.7926 6.30322 17.431 6.876 17.431 7.58255V20.3787C17.431 21.0852 16.7926 21.658 16.005 21.658H1.74192C0.954357 21.658 0.315918 21.0852 0.315918 20.3787V7.58255C0.315918 6.876 0.954357 6.30322 1.74192 6.30322Z" fill="url(#paint0_linear_17_499)"/>
<path d="M4.73242 18.139L7.73224 13.9688L4.98371 9.82156H7.19466L8.69457 12.4738C8.83306 12.7257 8.92796 12.9128 8.97931 13.0363H8.99876C9.0973 12.8353 9.20103 12.6401 9.30994 12.4507L10.9133 9.82297H12.943L10.1245 13.9457L13.0146 18.139H10.855L9.12246 15.2278C9.04085 15.104 8.9716 14.9739 8.91553 14.8391H8.88986C8.83911 14.9711 8.77177 15.0976 8.68914 15.216L6.90528 18.139H4.73242Z" fill="white"/>
<path d="M32.3422 0.0217285H21.3208V7.00116H33.7682V1.30106C33.7682 0.594501 33.1297 0.0217285 32.3422 0.0217285Z" fill="#33C481"/>
<path d="M21.3208 13.9806H33.7682V20.9601H21.3208V13.9806Z" fill="#107C41"/>
<defs>
<linearGradient id="paint0_linear_17_499" x1="3.28916" y1="5.30358" x2="12.7395" y2="23.5477" gradientUnits="userSpaceOnUse">
<stop stop-color="#18884F"/>
<stop offset="0.5" stop-color="#117E43"/>
<stop offset="1" stop-color="#0B6631"/>
</linearGradient>
</defs>
</svg>
